<mxfile host="app.diagrams.net" modified="2023-10-11T09:47:54.947Z" agent="Mozilla/5.0 (Macintosh; Intel Mac OS X 10_15_7) AppleWebKit/537.36 (KHTML, like Gecko) Chrome/111.0.0.0 Safari/537.36" etag="v_fJcClIyO5N1b04_Hkl" version="22.0.4" type="device">
  <diagram name="Page-1" id="EbOEkz9mAEtNpN4v02UG">
    <mxGraphModel dx="1911" dy="956" grid="1" gridSize="10" guides="1" tooltips="1" connect="1" arrows="1" fold="1" page="1" pageScale="1" pageWidth="850" pageHeight="1100" math="0" shadow="0">
      <root>
        <mxCell id="0" />
        <mxCell id="1" parent="0" />
        <mxCell id="4DhOtQjv32o8LPqPX70y-1" value="Администратор&lt;br&gt;" style="shape=umlActor;verticalLabelPosition=bottom;verticalAlign=top;html=1;outlineConnect=0;" vertex="1" parent="1">
          <mxGeometry x="90" y="410" width="30" height="60" as="geometry" />
        </mxCell>
        <mxCell id="4DhOtQjv32o8LPqPX70y-4" value="Удалять сотрудника" style="ellipse;whiteSpace=wrap;html=1;" vertex="1" parent="1">
          <mxGeometry x="310" y="310" width="120" height="80" as="geometry" />
        </mxCell>
        <mxCell id="4DhOtQjv32o8LPqPX70y-5" value="Добавлять&lt;br&gt;&amp;nbsp;сотрудника" style="ellipse;whiteSpace=wrap;html=1;" vertex="1" parent="1">
          <mxGeometry x="250" y="550" width="120" height="80" as="geometry" />
        </mxCell>
        <mxCell id="4DhOtQjv32o8LPqPX70y-6" value="Редактировать&lt;br&gt;&amp;nbsp;сотрудника" style="ellipse;whiteSpace=wrap;html=1;" vertex="1" parent="1">
          <mxGeometry x="-120" y="550" width="120" height="80" as="geometry" />
        </mxCell>
        <mxCell id="4DhOtQjv32o8LPqPX70y-8" value="" style="endArrow=none;html=1;rounded=0;exitX=0.5;exitY=0.5;exitDx=0;exitDy=0;exitPerimeter=0;entryX=0;entryY=0.5;entryDx=0;entryDy=0;" edge="1" parent="1" source="4DhOtQjv32o8LPqPX70y-1" target="4DhOtQjv32o8LPqPX70y-4">
          <mxGeometry width="50" height="50" relative="1" as="geometry">
            <mxPoint x="400" y="680" as="sourcePoint" />
            <mxPoint x="450" y="630" as="targetPoint" />
          </mxGeometry>
        </mxCell>
        <mxCell id="4DhOtQjv32o8LPqPX70y-9" value="" style="endArrow=none;html=1;rounded=0;exitX=0.5;exitY=0.5;exitDx=0;exitDy=0;exitPerimeter=0;entryX=0.5;entryY=0;entryDx=0;entryDy=0;" edge="1" parent="1" source="4DhOtQjv32o8LPqPX70y-1" target="4DhOtQjv32o8LPqPX70y-5">
          <mxGeometry width="50" height="50" relative="1" as="geometry">
            <mxPoint x="400" y="680" as="sourcePoint" />
            <mxPoint x="450" y="630" as="targetPoint" />
          </mxGeometry>
        </mxCell>
        <mxCell id="4DhOtQjv32o8LPqPX70y-10" value="" style="endArrow=none;html=1;rounded=0;exitX=0.5;exitY=0.5;exitDx=0;exitDy=0;exitPerimeter=0;" edge="1" parent="1" source="4DhOtQjv32o8LPqPX70y-1">
          <mxGeometry width="50" height="50" relative="1" as="geometry">
            <mxPoint x="400" y="680" as="sourcePoint" />
            <mxPoint x="-60" y="550" as="targetPoint" />
          </mxGeometry>
        </mxCell>
        <mxCell id="4DhOtQjv32o8LPqPX70y-12" value="Удаление данных" style="ellipse;whiteSpace=wrap;html=1;" vertex="1" parent="1">
          <mxGeometry x="510" y="350" width="120" height="80" as="geometry" />
        </mxCell>
        <mxCell id="4DhOtQjv32o8LPqPX70y-14" value="Удалять разряд" style="ellipse;whiteSpace=wrap;html=1;" vertex="1" parent="1">
          <mxGeometry x="310" y="400" width="120" height="80" as="geometry" />
        </mxCell>
        <mxCell id="4DhOtQjv32o8LPqPX70y-15" value="Добавлять&lt;br&gt;&amp;nbsp;разряд" style="ellipse;whiteSpace=wrap;html=1;" vertex="1" parent="1">
          <mxGeometry x="390" y="550" width="120" height="80" as="geometry" />
        </mxCell>
        <mxCell id="4DhOtQjv32o8LPqPX70y-16" value="Редактировать&lt;br&gt;&amp;nbsp;разряд" style="ellipse;whiteSpace=wrap;html=1;" vertex="1" parent="1">
          <mxGeometry x="-250" y="550" width="120" height="80" as="geometry" />
        </mxCell>
        <mxCell id="4DhOtQjv32o8LPqPX70y-17" value="Редактировать&lt;br&gt;&amp;nbsp;мета-информацию системы" style="ellipse;whiteSpace=wrap;html=1;" vertex="1" parent="1">
          <mxGeometry x="-390" y="550" width="120" height="80" as="geometry" />
        </mxCell>
        <mxCell id="4DhOtQjv32o8LPqPX70y-18" value="Просматривает&lt;br&gt;&amp;nbsp;сотрудника" style="ellipse;whiteSpace=wrap;html=1;" vertex="1" parent="1">
          <mxGeometry x="-120" y="310" width="120" height="80" as="geometry" />
        </mxCell>
        <mxCell id="4DhOtQjv32o8LPqPX70y-19" value="Просматривает&lt;br&gt;&amp;nbsp;разряд" style="ellipse;whiteSpace=wrap;html=1;" vertex="1" parent="1">
          <mxGeometry x="-250" y="310" width="120" height="80" as="geometry" />
        </mxCell>
        <mxCell id="4DhOtQjv32o8LPqPX70y-20" value="Просматривает&lt;br&gt;&amp;nbsp;мета-информацию системы" style="ellipse;whiteSpace=wrap;html=1;" vertex="1" parent="1">
          <mxGeometry x="-380" y="310" width="120" height="80" as="geometry" />
        </mxCell>
        <mxCell id="4DhOtQjv32o8LPqPX70y-21" value="Просматривает&lt;br&gt;&amp;nbsp;платежную историю сотрудника" style="ellipse;whiteSpace=wrap;html=1;" vertex="1" parent="1">
          <mxGeometry x="-540" y="310" width="140" height="80" as="geometry" />
        </mxCell>
        <mxCell id="4DhOtQjv32o8LPqPX70y-22" value="" style="endArrow=none;html=1;rounded=0;entryX=0.5;entryY=1;entryDx=0;entryDy=0;exitX=0.5;exitY=0.5;exitDx=0;exitDy=0;exitPerimeter=0;" edge="1" parent="1" source="4DhOtQjv32o8LPqPX70y-1" target="4DhOtQjv32o8LPqPX70y-18">
          <mxGeometry width="50" height="50" relative="1" as="geometry">
            <mxPoint x="80" y="390" as="sourcePoint" />
            <mxPoint x="130" y="340" as="targetPoint" />
          </mxGeometry>
        </mxCell>
        <mxCell id="4DhOtQjv32o8LPqPX70y-23" value="" style="endArrow=none;html=1;rounded=0;entryX=0.5;entryY=1;entryDx=0;entryDy=0;" edge="1" parent="1" target="4DhOtQjv32o8LPqPX70y-19">
          <mxGeometry width="50" height="50" relative="1" as="geometry">
            <mxPoint x="110" y="440" as="sourcePoint" />
            <mxPoint x="130" y="340" as="targetPoint" />
          </mxGeometry>
        </mxCell>
        <mxCell id="4DhOtQjv32o8LPqPX70y-25" value="" style="endArrow=none;html=1;rounded=0;entryX=0.5;entryY=1;entryDx=0;entryDy=0;exitX=0.5;exitY=0.5;exitDx=0;exitDy=0;exitPerimeter=0;" edge="1" parent="1" source="4DhOtQjv32o8LPqPX70y-1" target="4DhOtQjv32o8LPqPX70y-20">
          <mxGeometry width="50" height="50" relative="1" as="geometry">
            <mxPoint x="-140" y="370" as="sourcePoint" />
            <mxPoint x="-90" y="320" as="targetPoint" />
          </mxGeometry>
        </mxCell>
        <mxCell id="4DhOtQjv32o8LPqPX70y-26" value="" style="endArrow=none;html=1;rounded=0;entryX=0.5;entryY=1;entryDx=0;entryDy=0;" edge="1" parent="1" target="4DhOtQjv32o8LPqPX70y-21">
          <mxGeometry width="50" height="50" relative="1" as="geometry">
            <mxPoint x="100" y="440" as="sourcePoint" />
            <mxPoint x="-90" y="320" as="targetPoint" />
          </mxGeometry>
        </mxCell>
        <mxCell id="4DhOtQjv32o8LPqPX70y-27" value="Просмотр данных" style="ellipse;whiteSpace=wrap;html=1;" vertex="1" parent="1">
          <mxGeometry x="-340" y="130" width="120" height="80" as="geometry" />
        </mxCell>
        <mxCell id="4DhOtQjv32o8LPqPX70y-28" value="" style="endArrow=open;html=1;rounded=0;exitX=0.5;exitY=0;exitDx=0;exitDy=0;entryX=0;entryY=1;entryDx=0;entryDy=0;dashed=1;endFill=0;" edge="1" parent="1" source="4DhOtQjv32o8LPqPX70y-21" target="4DhOtQjv32o8LPqPX70y-27">
          <mxGeometry width="50" height="50" relative="1" as="geometry">
            <mxPoint x="-180" y="280" as="sourcePoint" />
            <mxPoint x="-130" y="230" as="targetPoint" />
          </mxGeometry>
        </mxCell>
        <mxCell id="4DhOtQjv32o8LPqPX70y-29" value="" style="endArrow=open;html=1;rounded=0;entryX=0.371;entryY=0.999;entryDx=0;entryDy=0;exitX=0.5;exitY=0;exitDx=0;exitDy=0;entryPerimeter=0;dashed=1;endFill=0;" edge="1" parent="1" source="4DhOtQjv32o8LPqPX70y-20" target="4DhOtQjv32o8LPqPX70y-27">
          <mxGeometry width="50" height="50" relative="1" as="geometry">
            <mxPoint x="-180" y="360" as="sourcePoint" />
            <mxPoint x="-130" y="310" as="targetPoint" />
          </mxGeometry>
        </mxCell>
        <mxCell id="4DhOtQjv32o8LPqPX70y-30" value="" style="endArrow=open;html=1;rounded=0;entryX=0.686;entryY=0.971;entryDx=0;entryDy=0;exitX=0.5;exitY=0;exitDx=0;exitDy=0;entryPerimeter=0;dashed=1;endFill=0;" edge="1" parent="1" source="4DhOtQjv32o8LPqPX70y-19" target="4DhOtQjv32o8LPqPX70y-27">
          <mxGeometry width="50" height="50" relative="1" as="geometry">
            <mxPoint x="-180" y="360" as="sourcePoint" />
            <mxPoint x="-130" y="310" as="targetPoint" />
          </mxGeometry>
        </mxCell>
        <mxCell id="4DhOtQjv32o8LPqPX70y-31" value="" style="endArrow=open;html=1;rounded=0;entryX=1;entryY=1;entryDx=0;entryDy=0;exitX=0.5;exitY=0;exitDx=0;exitDy=0;dashed=1;endFill=0;" edge="1" parent="1" source="4DhOtQjv32o8LPqPX70y-18" target="4DhOtQjv32o8LPqPX70y-27">
          <mxGeometry width="50" height="50" relative="1" as="geometry">
            <mxPoint x="-180" y="360" as="sourcePoint" />
            <mxPoint x="-130" y="310" as="targetPoint" />
          </mxGeometry>
        </mxCell>
        <mxCell id="4DhOtQjv32o8LPqPX70y-32" value="&quot;include&quot;" style="text;html=1;strokeColor=none;fillColor=none;align=center;verticalAlign=middle;whiteSpace=wrap;rounded=0;" vertex="1" parent="1">
          <mxGeometry x="-460" y="220" width="60" height="30" as="geometry" />
        </mxCell>
        <mxCell id="4DhOtQjv32o8LPqPX70y-33" value="&quot;include&quot;" style="text;html=1;strokeColor=none;fillColor=none;align=center;verticalAlign=middle;whiteSpace=wrap;rounded=0;" vertex="1" parent="1">
          <mxGeometry x="-380" y="250" width="60" height="30" as="geometry" />
        </mxCell>
        <mxCell id="4DhOtQjv32o8LPqPX70y-34" value="&quot;include&quot;" style="text;html=1;strokeColor=none;fillColor=none;align=center;verticalAlign=middle;whiteSpace=wrap;rounded=0;" vertex="1" parent="1">
          <mxGeometry x="-280" y="260" width="60" height="30" as="geometry" />
        </mxCell>
        <mxCell id="4DhOtQjv32o8LPqPX70y-35" value="&quot;include&quot;" style="text;html=1;strokeColor=none;fillColor=none;align=center;verticalAlign=middle;whiteSpace=wrap;rounded=0;" vertex="1" parent="1">
          <mxGeometry x="-150" y="220" width="60" height="30" as="geometry" />
        </mxCell>
        <mxCell id="4DhOtQjv32o8LPqPX70y-36" value="Редактирование данных" style="ellipse;whiteSpace=wrap;html=1;" vertex="1" parent="1">
          <mxGeometry x="-250" y="710" width="120" height="80" as="geometry" />
        </mxCell>
        <mxCell id="4DhOtQjv32o8LPqPX70y-37" value="" style="endArrow=open;html=1;rounded=0;exitX=0.5;exitY=1;exitDx=0;exitDy=0;entryX=0;entryY=0;entryDx=0;entryDy=0;dashed=1;endFill=0;" edge="1" parent="1" target="4DhOtQjv32o8LPqPX70y-36" source="4DhOtQjv32o8LPqPX70y-17">
          <mxGeometry width="50" height="50" relative="1" as="geometry">
            <mxPoint x="-380" y="890" as="sourcePoint" />
            <mxPoint x="-40" y="810" as="targetPoint" />
          </mxGeometry>
        </mxCell>
        <mxCell id="4DhOtQjv32o8LPqPX70y-38" value="" style="endArrow=open;html=1;rounded=0;entryX=0.5;entryY=0;entryDx=0;entryDy=0;exitX=0.5;exitY=1;exitDx=0;exitDy=0;dashed=1;endFill=0;" edge="1" parent="1" target="4DhOtQjv32o8LPqPX70y-36" source="4DhOtQjv32o8LPqPX70y-16">
          <mxGeometry width="50" height="50" relative="1" as="geometry">
            <mxPoint x="-230" y="890" as="sourcePoint" />
            <mxPoint x="-40" y="890" as="targetPoint" />
          </mxGeometry>
        </mxCell>
        <mxCell id="4DhOtQjv32o8LPqPX70y-40" value="" style="endArrow=open;html=1;rounded=0;entryX=0.819;entryY=0.11;entryDx=0;entryDy=0;exitX=0.5;exitY=1;exitDx=0;exitDy=0;dashed=1;endFill=0;entryPerimeter=0;" edge="1" parent="1" target="4DhOtQjv32o8LPqPX70y-36" source="4DhOtQjv32o8LPqPX70y-6">
          <mxGeometry width="50" height="50" relative="1" as="geometry">
            <mxPoint x="30" y="890" as="sourcePoint" />
            <mxPoint x="-40" y="890" as="targetPoint" />
          </mxGeometry>
        </mxCell>
        <mxCell id="4DhOtQjv32o8LPqPX70y-41" value="&quot;include&quot;" style="text;html=1;strokeColor=none;fillColor=none;align=center;verticalAlign=middle;whiteSpace=wrap;rounded=0;" vertex="1" parent="1">
          <mxGeometry x="-350" y="670" width="60" height="30" as="geometry" />
        </mxCell>
        <mxCell id="4DhOtQjv32o8LPqPX70y-42" value="&quot;include&quot;" style="text;html=1;strokeColor=none;fillColor=none;align=center;verticalAlign=middle;whiteSpace=wrap;rounded=0;" vertex="1" parent="1">
          <mxGeometry x="-190" y="650" width="60" height="30" as="geometry" />
        </mxCell>
        <mxCell id="4DhOtQjv32o8LPqPX70y-44" value="&quot;include&quot;" style="text;html=1;strokeColor=none;fillColor=none;align=center;verticalAlign=middle;whiteSpace=wrap;rounded=0;" vertex="1" parent="1">
          <mxGeometry x="-100" y="670" width="60" height="30" as="geometry" />
        </mxCell>
        <mxCell id="4DhOtQjv32o8LPqPX70y-45" value="Просмотр данных" style="ellipse;whiteSpace=wrap;html=1;" vertex="1" parent="1">
          <mxGeometry x="330" y="690" width="120" height="80" as="geometry" />
        </mxCell>
        <mxCell id="4DhOtQjv32o8LPqPX70y-46" value="" style="endArrow=open;html=1;rounded=0;exitX=0.5;exitY=1;exitDx=0;exitDy=0;entryX=0;entryY=0;entryDx=0;entryDy=0;dashed=1;endFill=0;" edge="1" parent="1" target="4DhOtQjv32o8LPqPX70y-45" source="4DhOtQjv32o8LPqPX70y-5">
          <mxGeometry width="50" height="50" relative="1" as="geometry">
            <mxPoint x="200" y="870" as="sourcePoint" />
            <mxPoint x="540" y="790" as="targetPoint" />
          </mxGeometry>
        </mxCell>
        <mxCell id="4DhOtQjv32o8LPqPX70y-47" value="" style="endArrow=open;html=1;rounded=0;entryX=1;entryY=0;entryDx=0;entryDy=0;exitX=0.5;exitY=1;exitDx=0;exitDy=0;dashed=1;endFill=0;" edge="1" parent="1" target="4DhOtQjv32o8LPqPX70y-45" source="4DhOtQjv32o8LPqPX70y-15">
          <mxGeometry width="50" height="50" relative="1" as="geometry">
            <mxPoint x="350" y="870" as="sourcePoint" />
            <mxPoint x="540" y="870" as="targetPoint" />
          </mxGeometry>
        </mxCell>
        <mxCell id="4DhOtQjv32o8LPqPX70y-50" value="&quot;include&quot;" style="text;html=1;strokeColor=none;fillColor=none;align=center;verticalAlign=middle;whiteSpace=wrap;rounded=0;" vertex="1" parent="1">
          <mxGeometry x="260" y="660" width="60" height="30" as="geometry" />
        </mxCell>
        <mxCell id="4DhOtQjv32o8LPqPX70y-51" value="&quot;include&quot;" style="text;html=1;strokeColor=none;fillColor=none;align=center;verticalAlign=middle;whiteSpace=wrap;rounded=0;" vertex="1" parent="1">
          <mxGeometry x="450" y="650" width="60" height="30" as="geometry" />
        </mxCell>
        <mxCell id="4DhOtQjv32o8LPqPX70y-54" value="" style="endArrow=open;html=1;rounded=0;exitX=1;exitY=0.5;exitDx=0;exitDy=0;entryX=0;entryY=1;entryDx=0;entryDy=0;dashed=1;endFill=0;" edge="1" parent="1" source="4DhOtQjv32o8LPqPX70y-14" target="4DhOtQjv32o8LPqPX70y-12">
          <mxGeometry width="50" height="50" relative="1" as="geometry">
            <mxPoint x="320" y="640" as="sourcePoint" />
            <mxPoint x="358" y="712" as="targetPoint" />
          </mxGeometry>
        </mxCell>
        <mxCell id="4DhOtQjv32o8LPqPX70y-55" value="" style="endArrow=open;html=1;rounded=0;exitX=1;exitY=0.5;exitDx=0;exitDy=0;entryX=0;entryY=0;entryDx=0;entryDy=0;dashed=1;endFill=0;" edge="1" parent="1" source="4DhOtQjv32o8LPqPX70y-4" target="4DhOtQjv32o8LPqPX70y-12">
          <mxGeometry width="50" height="50" relative="1" as="geometry">
            <mxPoint x="330" y="650" as="sourcePoint" />
            <mxPoint x="368" y="722" as="targetPoint" />
          </mxGeometry>
        </mxCell>
        <mxCell id="4DhOtQjv32o8LPqPX70y-56" value="&quot;include&quot;" style="text;html=1;strokeColor=none;fillColor=none;align=center;verticalAlign=middle;whiteSpace=wrap;rounded=0;" vertex="1" parent="1">
          <mxGeometry x="460" y="310" width="60" height="30" as="geometry" />
        </mxCell>
        <mxCell id="4DhOtQjv32o8LPqPX70y-57" value="&quot;include&quot;" style="text;html=1;strokeColor=none;fillColor=none;align=center;verticalAlign=middle;whiteSpace=wrap;rounded=0;" vertex="1" parent="1">
          <mxGeometry x="470" y="440" width="60" height="30" as="geometry" />
        </mxCell>
        <mxCell id="4DhOtQjv32o8LPqPX70y-58" value="" style="endArrow=none;html=1;rounded=0;entryX=0;entryY=0.5;entryDx=0;entryDy=0;" edge="1" parent="1" target="4DhOtQjv32o8LPqPX70y-14">
          <mxGeometry width="50" height="50" relative="1" as="geometry">
            <mxPoint x="110" y="440" as="sourcePoint" />
            <mxPoint x="180" y="460" as="targetPoint" />
          </mxGeometry>
        </mxCell>
        <mxCell id="4DhOtQjv32o8LPqPX70y-59" value="" style="endArrow=none;html=1;rounded=0;exitX=0.5;exitY=0.5;exitDx=0;exitDy=0;exitPerimeter=0;entryX=0.5;entryY=0;entryDx=0;entryDy=0;" edge="1" parent="1" source="4DhOtQjv32o8LPqPX70y-1" target="4DhOtQjv32o8LPqPX70y-16">
          <mxGeometry width="50" height="50" relative="1" as="geometry">
            <mxPoint x="115" y="450" as="sourcePoint" />
            <mxPoint x="-50" y="560" as="targetPoint" />
          </mxGeometry>
        </mxCell>
        <mxCell id="4DhOtQjv32o8LPqPX70y-60" value="" style="endArrow=none;html=1;rounded=0;entryX=0.5;entryY=0;entryDx=0;entryDy=0;" edge="1" parent="1" target="4DhOtQjv32o8LPqPX70y-17">
          <mxGeometry width="50" height="50" relative="1" as="geometry">
            <mxPoint x="110" y="440" as="sourcePoint" />
            <mxPoint x="-40" y="570" as="targetPoint" />
          </mxGeometry>
        </mxCell>
        <mxCell id="4DhOtQjv32o8LPqPX70y-61" value="" style="endArrow=none;html=1;rounded=0;entryX=0.5;entryY=0;entryDx=0;entryDy=0;" edge="1" parent="1" target="4DhOtQjv32o8LPqPX70y-15">
          <mxGeometry width="50" height="50" relative="1" as="geometry">
            <mxPoint x="110" y="440" as="sourcePoint" />
            <mxPoint x="320" y="560" as="targetPoint" />
          </mxGeometry>
        </mxCell>
      </root>
    </mxGraphModel>
  </diagram>
</mxfile>
